# xmcd
#
# Track frame offsets: 
#        150
#        18825
#        46216
#        70866
#        93537
#        120583
#        141458
#        162223
#        181319
#        194074
#        217422
#
# Disc length: 3223 seconds
#
# Revision: 0
# Processed by: cddbd v1.5.2PL0 Copyright (c) Steve Scherf et al.
# Submitted via: ExactAudioCopyFreeDBPlugin 1.0
#
DISCID=a50c950b
DTITLE=Francis Durbridge - Paul Temple and the Alex Affair
DYEAR=2006
DGENRE=Hörbuch
TTITLE0=Episode One: Miss Trevelyan 1
TTITLE1=Episode One: Miss Trevelyan 2
TTITLE2=Episode One: Miss Trevelyan 3
TTITLE3=Episode One: Miss Trevelyan 4
TTITLE4=Episode One: Miss Trevelyan 5
TTITLE5=Episode Two: Dr Kohima 1
TTITLE6=Episode Two: Dr Kohima 2
TTITLE7=Episode Two: Dr Kohima 3
TTITLE8=Episode Two: Dr Kohima 4
TTITLE9=Episode Two: Dr Kohima 5
TTITLE10=Episode Two: Dr Kohima 6
EXTD=
EXTT0=
EXTT1=
EXTT2=
EXTT3=
EXTT4=
EXTT5=
EXTT6=
EXTT7=
EXTT8=
EXTT9=
EXTT10=
PLAYORDER=
